<svg xmlns="http://www.w3.org/2000/svg" viewBox="0 0 50.5 37.1"><style><![CDATA[
	.st0{fill:#AF936E;}
	.st1{fill:#313131;}
	.st2{fill:#D4C4B0;}
]]></style><g id="gato"><path id="orelha_3_" class="st0" d="M43.1 15.1c-1.9.3-9.2-7.9-8.4-9.6 2.2-6.2 14.7-6 15.7-4.2.9 1.8-2.4 12.8-7.3 13.8z"/><path id="orelha_2_" class="st0" d="M7.5 15.1c1.9.3 9.2-7.9 8.4-9.6C13.7-.7 1.2-.5.2 1.3c-1 1.8 2.3 12.8 7.3 13.8z"/><path id="cabeça_2_" class="st2" d="M46.4 21.5c0 11.9-9.6 15.7-21.5 15.7S3.4 33.4 3.4 21.5C4.8 10.3 12.2.3 25 0c10.5-.2 20 9.4 21.4 21.5z"/><path id="nariz_5_" class="st1" d="M21.6 22.6c.3-.9 4.9-.8 5.2 0 .7 1.6-1 3-1.5 3.4-.7.6-1.6.3-2.1 0-.9-.5-2.1-2-1.6-3.4z"/><path class="st1" d="M19 16.7s-.1.2-.2.6l-.3.6c-.1.2-.3.5-.5.8-.4.5-.9 1.1-1.7 1.6-.4.2-.8.4-1.2.5-.2.1-.4.1-.7.1h-.7c-.2 0-.5 0-.7-.1-.2-.1-.5-.1-.7-.2l-.6-.3c-.2-.1-.4-.2-.5-.4-.7-.5-1.2-1.1-1.6-1.7-.4-.5-.7-1-.8-1.4-.2-.3-.3-.5-.3-.5s.1.2.3.5c.2.2.3.4.5.6.2.2.4.4.6.7.2.3.5.5.7.8.3.2.6.5.9.7.2.1.3.2.5.3.2.1.4.2.6.2.2.1.4.1.6.2.2.1.4.1.6.1h.6c.2 0 .4 0 .6-.1.4-.1.8-.3 1.1-.4.3-.2.7-.4.9-.7.3-.2.5-.5.7-.7.2-.2.4-.5.6-.7.2-.2.3-.4.4-.6.2-.3.3-.5.3-.5z" id="olho_6_"/><path class="st1" d="M30.2 16.7s.1.2.3.5c.1.2.2.4.4.6.2.2.3.5.6.7.2.2.4.5.7.7.3.3.6.4.9.7.4.2.7.3 1.1.4.2.1.4.1.6.1h.6c.2 0 .4 0 .6-.1.2-.1.4-.1.6-.2.2-.1.4-.2.6-.2.2-.1.3-.2.5-.3.3-.2.6-.5.9-.7.3-.3.5-.5.7-.8.2-.3.4-.5.6-.7.2-.2.3-.4.4-.6.2-.3.3-.5.3-.5s-.1.2-.3.5c-.2.3-.4.8-.8 1.4-.4.5-.9 1.1-1.6 1.7-.3.2-.7.5-1.1.7-.2.1-.4.1-.7.2-.2.1-.4.1-.7.1h-.7c-.2 0-.5 0-.7-.1-.4-.1-.8-.3-1.2-.5-.7-.5-1.3-1-1.7-1.6-.2-.2-.3-.5-.5-.8l-.3-.6c0-.4-.1-.6-.1-.6z" id="olho_2_"/></g></svg>