<?xml version="1.0" encoding="utf-8"?>
<!DOCTYPE svg PUBLIC "-//W3C//DTD SVG 1.1//EN" "http://www.w3.org/Graphics/SVG/1.1/DTD/svg11.dtd">
<svg version="1.1" id="Layer_1" xmlns="http://www.w3.org/2000/svg" xmlns:xlink="http://www.w3.org/1999/xlink" x="0px" y="0px"
	 viewBox="0 0 489.3 116.5" style="enable-background:new 0 0 489.3 116.5;" xml:space="preserve"
	>
<style type="text/css">
<![CDATA[
	.st0{fill:#C33265;}
]]>
</style>
<g>
	<path class="st0" d="M117.6,89.8c-9.8,16.6-16.6,22-27.6,22c-24.9,0-41.8-39.6-61.5-49.9l-0.3,0.2c1.2,7.4,2.1,22.2,2.1,27.9
		c0,17.4-5,26.5-12.3,26.5c-1.4,0-2.2-0.3-2.2-1.2c0-1,0.7-2.4,1.6-3C21.9,110,24.3,97,24.3,84c0-6.2-1.3-20.1-2.2-25.1
		c-0.8-0.6-2.5-1.7-4.5-1.9C9.7,56.2,0,54.4,0,48.9c0-1.4,1.6-2,4-2c4.3,0,11.4,2,17,4.6c0,0-3.5-18.6-3.5-32.5
		c0-14.7,3.6-19,5.1-19c1,0,2.3,0.4,2.3,3.7c0,3-0.6,9.3-0.6,16.5c0,14.1,2.4,31.4,2.7,31.4h1.7c22-2.1,48.5-49.3,59-49.3
		c2,0,2.4,0.4,2.4,0.7C90,4.7,88.5,5.7,87,7.1l-1.3,1.3C70,24.5,51.5,53.8,30,56.4c7.6,5.2,14.2,10.3,25.8,24.2l0.8,0.9
		c7,8.3,21.5,25.9,33,25.9c7.7,0,14.2-3.9,18-10.2c-2.6,1.7-3.9,3.1-9,3.1c-5.8,0-8.4-4.4-8.4-7.8c0-8,10.8-18.6,19.9-18.6
		c14.5,0,9.2,30.4,29.2,30.4c4.6,0,7.2-1.9,7.9-1.9c1.3,0,2.5,2,2.5,2.7c0,1.7-8.3,3.5-11.6,3.5c-12.8,0-18.7-14.5-20.3-18.4
		L117.6,89.8z M96.5,92.2c0,2.5,1.9,3.8,3.4,3.8c4.9,0,14.5-9.3,14.5-14.3c0-1.4-1.6-3.5-4.2-3.5C102.7,78.2,96.5,87.2,96.5,92.2z"
		/>
	<path class="st0" d="M169.8,81.3c7.4,0,10.8,19.5,14.3,19.5c5.3,0,11.6-20.8,18.1-20.8c6.1,0,8.5,23.3,12.9,23.3
		c8.9,0,11.5-20.7,21.6-20.7c7.1,0,4,21.7,15.6,21.7c5.2,0,7.6-1.9,8.3-1.9c1.2,0,2.5,1.8,2.5,2.8s-5.1,3.2-12,3.2
		c-14,0-13.1-18.8-16.1-18.8c-4,0-10,19-18.8,19c-10.9,0-10.2-19.6-14.9-19.6c-3.5,0-10.7,18.4-16.8,18.4c-9,0-10.6-19-15.3-19
		c-1.8,0-5,5.4-11.9,11.9c-4.2,3.9-9.1,6.4-10.3,6.4c-2.1,0-2.3-1-2.3-2.3c0-0.3,0-1,0.6-1.2c3.2-1.4,6.6-4,9-6.7
		C158.5,91.7,164.9,81.3,169.8,81.3z"/>
	<path class="st0" d="M310,102.4c1.2,0,2.5,1.8,2.5,2.8s-5.1,3.2-12,3.2c-13.4,0-17.8-17.4-20.7-17.4c-1.5,0-5.3,5.1-9.2,9.2
		c-3.7,3.8-9,6.5-10.2,6.5c-2.1,0-2.3-1-2.3-2.3c0-0.3,0-1,0.6-1.2c3.2-1.4,6.6-4,9-6.7c4.1-4.4,9-13.5,12.6-13.5
		c6.5,0,9.5,21.3,21.4,21.3C306.9,104.3,309.3,102.4,310,102.4z M284.8,55.3c2,0,5.7,1.5,5.7,3.9c0,2.4-0.5,3.3-2.1,3.3
		c-3.2,0-5.6-2.4-5.6-5.6C282.8,55.3,283.6,55.3,284.8,55.3z"/>
	<path class="st0" d="M309.8,106.7c-2.1,0-2.3-1-2.3-2.3c0-0.3,0-1,0.6-1.2c3.2-1.4,6.6-4.1,9.1-6.7c4.9-5.2,9.9-12.3,11.9-16.2
		c-2.2-5.8-5.6-23-5.6-36.9S326.4,16,336.1,16C345,16,348,26.1,348,34.9c0,16-9,39.4-13.1,46.3c4.1,8.7,10.5,17.9,22.3,17.9
		c7.6,0,17.6-9.4,23.2-18.1c-2.1-6.4-6.7-27.8-6.7-40.5c0-16,3.6-31.5,18-31.5c9.1,0,12.5,7.9,12.5,17.4c0,14.9-6.7,38-17.5,55.3
		c0.1,3.9,9.8,22.4,21,22.4c4.7,0,7.1-1.7,8-1.7c1.2,0,2.4,1.8,2.4,2.8s-5.8,3.2-10.9,3.2c-13.7,0-20.7-13.5-24.6-22
		c-3.5,4.2-14.6,17.6-26.2,17.6c-12.2,0-19.7-9.8-24.4-17.4l-0.5-0.5c-2.3,3.8-6.4,9.2-10.2,13C316.3,104.2,311,106.7,309.8,106.7z
		 M328.7,47.4c0,10,1.8,22.1,3.8,27.6c3.7-7.4,10-27.5,10-39.8c0-5.8-2.2-13.5-6.4-13.5C330.5,21.7,328.7,34.7,328.7,47.4z
		 M379.6,42.1c0,13.6,2.7,26.5,4.6,34.1c3.6-5.1,13.8-30.3,13.8-46.7c0-8-0.7-14.8-7.2-14.8C381.7,14.7,379.6,28.2,379.6,42.1z"/>
	<path class="st0" d="M488.6,93.6c0.5,0,0.7,0.4,0.7,1c0,4.1-6.4,10.3-12.6,10.3c-10.6,0-11.4-12.3-17-12.3c-5.7,0-13.6,17-27,17
		c-5.8,0-9.2-4.5-9.2-10.4c0-11.5,14.6-23.8,26.4-23.8c5.4,0,7.9,1.9,7.9,5.5c0,3.1-0.7,5.4-2.7,7.4c0,0.1,0.2,0.1,0.3,0.1
		c0.6,0,2.9-1.7,6.1-1.7c6.8,0,7.2,13.4,14.2,13.4c3.1,0,7-2.4,9-4.1C486.7,94.3,487.9,93.6,488.6,93.6z M433.7,103.2
		c9.2,0,18.8-13.2,18.8-20.4c0-2.1-1.3-2.3-3-2.3c-7.4,0-20.3,7.5-20.3,18.7C429.2,101.8,430.6,103.2,433.7,103.2z"/>
</g>
</svg>
