<svg xmlns="http://www.w3.org/2000/svg" viewBox="0 0 296.5 199.6"><style><![CDATA[
	.st0{fill:#472915;}
	.st1{fill:#52B965;}
	.st2{fill:#8C6239;}
	.st3{fill:#F4B350;}
	.st4{fill:#F4CDB3;}
	.st5{fill:#F9C1AC;}
	.st6{fill:#C33265;}
	.st7{fill:#FFFFFF;}
	.st8{fill:#D2527F;}
	.st9{fill:#DDDDDD;}
	.st10{fill:url(#topnariz_2_);}
]]></style><path class="st7" d="M292.9 175.6c0 20.8 5.5 31.2-30.7 31.2-9.6 0-33.7-10.4-33.7-31.2 0-20.8 14.4-37.6 32.2-37.6 17.8-.1 32.2 16.8 32.2 37.6z" id="cadeira"/><g id="corpo"><path class="st4" d="M202 121.7c3.2 41.7-3.4 46-6.2 50.7-13.8 16-41.4 13.3-43.8 12.4-29.2-10.7-30.6 15.4-30.6 15.4s67.8 5.8 80.6-5.1c1.2-1 25.8-23 18.1-71.7-.3-1.7-15.7-2.8-18.1-1.7z"/><path class="st9" d="M225.2 197.1c0 1.7-1.3 3-3 3h-85c-1.7 0-3-1.3-3-3v-5c0-1.7 1.3-3 3-3h85c1.7 0 3 1.3 3 3v5z" id="teclado"/><path class="st5" d="M266.6 130.7s2 7.5 3.5 14.3c-.6 1.1-11.7-5.4-11.7-5.4l8.2-8.9z"/><path class="st8" d="M213.9 118.1c1.6 12.7 1 17.5 0 21.6-9.1 13.6-15.2 22.5 0 32.4 2.6 1.7.5 30-3.8 28.1-3.5-1.6 51 4.7 60 0 4-36.4 4.3-37.7-1.3-61-6.8 4.3-13.5-11.1-13.5-11.1s-38.9-12.6-41.4-10z"/><g id="xicara"><path id="asa_1_" class="st7" d="M220 193.6c.6-1.7 1.1-3.5 1.4-4.7 10.4 5.9 11.8-11.6-.5-8.1 0-2.3 0-2.9.1-5.2 17.3.6 15.9 20.9-1 18z"/><path id="xicara_4_" class="st7" d="M222.5 186.4c0 7.3-6.3 13.2-14.1 13.2s-14.1-5.9-14.1-13.2"/><path id="xicara_3_" class="st7" d="M194.2 174.1h29v13h-29z"/></g><path class="st4" d="M209.1 200.2s71.9 14.1 85.3-29.4c.5-1.6 14.1-38.5-32.9-55.6-1.9-.7-7.8 20-5.9 20.1C289.1 137 278 167 277.7 168c-5.4 17.4-36.2 17.1-37.9 16.5-29.5-9.3-30.7 15.7-30.7 15.7z"/><path class="st6" d="M252.7 161.6c0 4.7-3.9 8.5-8.6 8.5-4.8 0-8.6-3.8-8.6-8.5s3.9-8.5 8.6-8.5c4.7 0 8.6 3.8 8.6 8.5z"/><path class="st6" d="M235.2 153.1h18v8h-18z"/><path class="st5" d="M246.2 124.1c0 4.4-3.6 8-8 8s-8-3.6-8-8v-12c0-4.4 3.6-8 8-8s8 3.6 8 8v12z" id="pescoço"/></g><g id="pc"><path class="st9" d="M176.5 167.1c.3 1.6-.7 2.9-2.4 2.9l-138.5-1.3c-1.6 0-3.3-1.4-3.6-3L9.2 54.1c-.3-1.6.7-3 2.4-3H149c1.6 0 3.3 1.4 3.6 3l23.9 113z" id="tela_6_"/><path class="st7" d="M167.9 167.1c.3 1.6-.7 2.9-2.4 2.9L27 168.7c-1.6 0-3.3-1.4-3.6-3L.6 54.1c-.3-1.6.7-3 2.4-3h137.4c1.6 0 3.3 1.4 3.6 3l23.9 113z" id="tela_2_"/><path class="st7" d="M86.7 135.7c.2-1.6-1.1-2.8-2.7-2.7l-13.7 1.5c-1.6.2-3.2 1.7-3.4 3.3l-9.2 59.3c-.3 1.6.9 3 2.5 3.1l17.2.8c1.6.1 3.1-1.2 3.3-2.8l6-62.5z" id="base_14_"/><path class="st9" d="M97.1 203.9c-.3 1.6-1.8 3.1-3.5 3.1h-5.9c-1.6 0-2.8-1.5-2.5-3.1l10.7-69c.3-1.6 1.8-2.8 3.5-2.8h6.2c1.6 0 2.8 1.2 2.5 2.8l-11 69z" id="base_12_"/><path class="st9" d="M127.2 193.1c0-2.2-1.8-4-4-4h-37c-2.2 0-4 1.8-4 4v11c0 2.2 1.8 4 4 4h37c2.2 0 4-1.8 4-4v-11z" id="base_10_"/><path id="base_9_" class="st7" d="M90.2 200.1H72.1l6.7-67 22.7-1.8z"/><path id="base_5_" class="st9" d="M101.2 177.8s-3.7 11.6 7.3 11.6c0 1.4-13.3 2-13.3 2l6-13.6"/><path id="marca_3_" class="st9" d="M81.9 100.1c.9 0 3.8-.5 5-1.6 1.2-1.1 1.7-2.6 1.9-3.5.2-1 .2-2.1-.2-2.6-.2-.2-.4-.3-.9-.3-1.1 0-3.5.5-4.9 1.9-1.3 1.2-1.8 3.2-1.9 4.5 0 1.1.2 1.4.3 1.5.2.1.4.1.7.1zm0 0"/><path id="marca_2_" class="st9" d="M91.6 107.7c0-2-.8-3.8-2.1-5.3-1-1.1-2.2-1.7-3.6-1.7-1.2 0-2.4.4-3.4.8-.7.3-1.3.5-1.7.5-.4 0-1.1-.3-1.7-.5-1-.4-2.2-.8-3.4-.8-1.4 0-2.6.5-3.6 1.7-1.4 1.5-2.1 3.3-2.2 5.3 0 1.7.4 3.2.7 4.2v.1c.3 1.1 1 3.2 2 5.1 1.4 2.5 3 3.7 4.7 3.7 2 0 2.7-.4 3.2-.7l.2-.1c.1 0 .1 0 .3.1.5.3 1.2.7 3.1.7 1.7 0 3.3-1.3 4.7-3.7 1.1-1.9 1.7-4 2-5.1v-.1c.4-1 .9-2.5.8-4.2zm-6.7 3.5c-.7 1.1-3.7 3.9-4.2 3.9-.4 0-3.5-2.8-4.2-3.9-.3-.5-.6-1.2-.5-2 .1-1.4 1.1-2.6 2.4-2.6 1.3 0 2 1.3 2.3 1.3.3 0 1-1.3 2.3-1.3 1.3 0 2.4 1.2 2.4 2.6.1.8-.1 1.4-.5 2zm0 0"/></g><g id="planta"><path class="st1" d="M26.7 148.6c0-2-1.4-6-3.3-7.8-1.9-1.9-5.8-2.9-7.9-3.3-.3-.1-.6 0-.8.2-.2.2-.3.5-.2.8.4 2 1.4 6 3.3 7.9 1.4 1.4 3.9 2.3 5.9 2.8v14.4c0 .8.7 1.5 1.5 1.5s1.5-.7 1.5-1.5v-15zm0 0"/><path class="st1" d="M32.5 132.7c0-2-1.4-6-3.3-7.9-1.9-1.9-5.8-2.9-7.9-3.3-.3-.1-.6 0-.8.2-.2.2-.3.5-.2.8.4 2 1.4 6 3.3 7.9 1.4 1.4 3.9 2.3 5.9 2.8v30.3c0 .8.7 1.5 1.5 1.5s1.5-.7 1.5-1.5c0 .1.1-29.7 0-30.8zm0 0M47.1 134c.1-.3 0-.6-.2-.8-.2-.2-.5-.3-.8-.2-2 .4-6 1.4-7.9 3.3-1.9 1.9-3.3 5.7-3.3 7.9v19.4c0 .8.7 1.5 1.5 1.5s1.5-.7 1.5-1.5v-18.9c2-.5 4.5-1.4 5.9-2.8 2-1.9 3-5.9 3.3-7.9zm0 0"/><ellipse class="st2" cx="30.4" cy="165.1" rx="12.2" ry="3.6"/><path class="st3" d="M45.2 196.1c0 2.2-1.8 4-4 4h-22c-2.2 0-4-1.8-4-4v-20c0-2.2 1.8-4 4-4h22c2.2 0 4 1.8 4 4v20z" id="vaso"/><path id="vaso_1_" class="st3" d="M15.2 164.1h30v23h-30z"/></g><g id="cabeça"><circle id="fone4_1_" class="st7" cx="192.3" cy="88.1" r="18.3"/><path id="top_1_" class="st0" d="M279.2 61.2c-10.8 47.3-55.4 52.4-55.4 52.4s-49.4 6.2-55.4-52.4c-3.1-30.4 24.8-55.4 55.4-55.4 30.6 0 62.2 25.6 55.4 55.4z"/><path id="cabelo_3_" class="st0" d="M197.1 139.6c2.8-9.7-17.1-60.3-17.1-60.3l49-2.2s28.3 62.5-31.9 62.5z"/><path class="st4" d="M254 96.3c.5 9.9-7.2 18.4-17.1 18.8l-37 1.8c-9.9.5-18.4-7.2-18.8-17.1l-1.6-34c-.5-9.9 7.2-18.4 17.1-18.8l37-1.8c9.9-.5 18.4 7.2 18.8 17.1l1.6 34z" id="rosto"/><path id="cabelo_2_" class="st0" d="M232.2 144.1c63.2 0 47.9-64.8 48.1-92.5-3.8-5.8-36.2-4.2-41.6 2.8 7.2 66.5 4.9 77.8-6.5 89.7z"/><path id="boca_3_" class="st7" d="M218.2 100.7c0 4.9-4.9 9-11 9s-11-4-11-9"/><path id="boca_2_" class="st7" d="M196.2 98.1h22v3h-22z"/><radialGradient id="topnariz_2_" cx="204.146" cy="102.257" r="9.749" gradientTransform="matrix(1 0 0 .25 0 63.48)" gradientUnits="userSpaceOnUse"><stop offset="0" stop-color="#FFB7BA"/><stop offset="1" stop-color="#F4CDB3"/></radialGradient><ellipse id="topnariz_1_" class="st10" cx="204.1" cy="89" rx="13.5" ry="4.1"/><path d="M201.9 93.3s.3-.2.8-.3c.5-.1 1.1-.2 1.7-.2.6 0 1.2.1 1.7.2s.8.3.8.3-.3.2-.8.3c-.5.1-1.1.2-1.7.2-.6 0-1.2-.1-1.7-.2-.4-.2-.8-.3-.8-.3z" id="nariz_2_"/><path d="M186.4 84.1v-.9-1.1c.1-.4.1-.9.2-1.4.1-.5.4-1.1.6-1.6.4-.5.6-1.1 1.2-1.6.5-.5 1.1-.9 1.7-1.2.4-.1.7-.2 1.1-.3l1.1-.1c.4 0 .7.1 1.1.1.4.1.7.2 1 .4.4.1.6.4.9.5.1.1.3.2.4.3l.4.4c.5.5.9 1 1.2 1.6.3.5.5 1.1.7 1.6.1.5.2 1 .2 1.4.1.4 0 .8 0 1.1v.9s-.1-.3-.2-.9c-.1-.3-.1-.7-.2-1-.1-.4-.3-.8-.4-1.3-.2-.4-.4-.9-.7-1.4-.3-.4-.7-.9-1.1-1.3l-.3-.3c-.1-.1-.3-.2-.4-.2-.3-.1-.5-.4-.8-.4l-.9-.3c-.3 0-.6-.1-.9-.1l-.9.1-.9.3c-.5.3-1.1.5-1.5 1-.5.4-.8.9-1.1 1.3-.2.5-.5 1-.7 1.4-.1.5-.3.9-.4 1.3-.1.4-.1.8-.2 1.1-.1.2-.2.6-.2.6z" id="olhos_6_"/><path d="M212.3 84.1v-.9-1.1c.1-.4.1-.9.2-1.4.1-.5.4-1.1.6-1.6.4-.5.6-1.1 1.2-1.6.5-.5 1.1-.9 1.7-1.2.4-.1.7-.2 1.1-.3l1.1-.1c.4 0 .7.1 1.1.1.4.1.7.2 1 .4.4.1.6.4.9.5.1.1.3.2.4.3l.4.4c.5.5.9 1 1.2 1.6.3.5.5 1.1.7 1.6.1.5.2 1 .2 1.4.1.4 0 .8 0 1.1v.9s-.1-.3-.2-.9c-.1-.3-.1-.7-.2-1-.1-.4-.3-.8-.4-1.3-.2-.4-.4-.9-.7-1.4-.3-.4-.7-.9-1.1-1.3l-.3-.3c-.1-.1-.3-.2-.4-.2-.3-.1-.5-.4-.8-.4l-.9-.3c-.3 0-.6-.1-.9-.1l-.9.1-.9.3c-.5.3-1.1.5-1.5 1-.5.4-.8.9-1.1 1.3-.2.5-.5 1-.7 1.4-.1.5-.3.9-.4 1.3-.1.4-.1.8-.2 1.1-.2.2-.2.6-.2.6z" id="olhos_2_"/><path id="franja_1_" class="st0" d="M180 49s24.7 30.8 79.8 28.1c-6.8-11.9 3.8-32.4-27-47.5C193.3 15 180 49 180 49z"/><circle id="fone1_1_" class="st7" cx="257.1" cy="86" r="18.3"/><circle id="fone2_1_" class="st9" cx="257.3" cy="86.2" r="12.4"/><circle id="fone3_1_" class="st7" cx="257.2" cy="86.1" r="9"/><path id="fone5_1_" class="st7" d="M262.5 68.8c7.2-63-47.1-82.1-56.9-60 46.5-12.7 51.8 54.7 47.3 59.3"/></g></svg>