<?xml version="1.0" encoding="utf-8"?>
<!-- Generator: Adobe Illustrator 16.0.4, SVG Export Plug-In . SVG Version: 6.00 Build 0)  -->
<!DOCTYPE svg PUBLIC "-//W3C//DTD SVG 1.1//EN" "http://www.w3.org/Graphics/SVG/1.1/DTD/svg11.dtd">
<svg version="1.1" id="Layer_1" xmlns="http://www.w3.org/2000/svg" xmlns:xlink="http://www.w3.org/1999/xlink" x="0px" y="0px"
	 viewBox="0 0 310 490" style="enable-background:new 0 0 310 490;" xml:space="preserve">
<style type="text/css">
<![CDATA[
	.st0{fill:#472A18;}
	.st1{fill:#F4CDB4;}
	.st2{fill:#F9C1AD;}
	.st3{fill:url(#SVGID_1_);}
	.st4{fill:#C43365;}
	.st5{fill:#FFFFFF;}
	.st6{fill:#010101;}
	.st7{fill:#D25380;}
]]>
</style>
<g>
	<path class="st0" d="M310,81c0,13.8-11.2,25-25,25H25C11.2,106,0,94.8,0,81V25C0,11.2,11.2,0,25,0h260c13.8,0,25,11.2,25,25V81z"/>
</g>
<g>
	<path class="st0" d="M310,372c0,13.8-11.2,25-25,25H25c-13.8,0-25-11.2-25-25V131c0-13.8,11.2-25,25-25h260c13.8,0,25,11.2,25,25
		V372z"/>
</g>
<g>
	<path class="st7" d="M293,465c0,13.8-11.2,25-25,25H42c-13.8,0-25-11.2-25-25V311c0-13.8,11.2-25,25-25h226c13.8,0,25,11.2,25,25
		V465z"/>
</g>
<circle class="st2" cx="153.1" cy="302.8" r="43.3"/>
<circle class="st1" cx="153.9" cy="155" r="154.5"/>
<path class="st0" d="M1.8,37.1c0-5.1-1.7,75,0,108.4l35.3-0.3c67.6,0,122.4-54.8,122.4-122.4"/>
<rect x="50" class="st0" width="214" height="35"/>
<rect y="45" class="st0" width="16" height="249"/>
<rect x="292" y="37" class="st0" width="18" height="249"/>
<path class="st0" d="M307.8,37.1c0-5.1,1.7,75,0,108.4l-35.3-0.3c-67.6,0-122.4-54.8-122.4-122.4"/>
<g>
	<path class="st4" d="M249,420c0,5.5-4.5,10-10,10h-31c-5.5,0-10-4.5-10-10v-31c0-5.5,4.5-10,10-10h31c5.5,0,10,4.5,10,10V420z"/>
</g>
<rect x="198" y="378" class="st4" width="51" height="26"/>
<g>
	<path class="st6" d="M50.4,193.2c0,0,0-1.9-0.1-5.2c0-0.8,0.1-1.7,0.1-2.7c0.1-1,0.1-2.1,0.3-3.2c0.2-1.1,0.3-2.4,0.5-3.7
		c0.2-1.3,0.6-2.6,0.9-4c0.1-0.7,0.4-1.4,0.6-2.1c0.2-0.7,0.5-1.4,0.7-2.2c0.2-0.8,0.6-1.4,0.9-2.2c0.3-0.7,0.7-1.5,1-2.2
		c0.4-0.7,0.8-1.4,1.3-2.2c0.2-0.4,0.4-0.7,0.7-1.1c0.3-0.4,0.5-0.7,0.8-1.1c0.5-0.7,1-1.5,1.6-2.1c0.6-0.7,1.2-1.3,1.9-2
		c2.6-2.6,5.8-4.8,9.4-6.4c3.6-1.5,7.6-2.4,11.5-2.3c4,0.1,7.9,1,11.4,2.6l1.3,0.6c0.4,0.2,0.8,0.5,1.3,0.7c0.8,0.5,1.7,0.9,2.4,1.5
		c0.8,0.6,1.5,1.1,2.3,1.7c0.7,0.6,1.4,1.2,2.1,1.9c0.7,0.6,1.2,1.3,1.9,2l0.9,1c0.3,0.3,0.5,0.7,0.8,1.1c0.5,0.7,1,1.4,1.5,2.1
		c0.4,0.7,0.9,1.5,1.3,2.2c0.2,0.4,0.4,0.7,0.6,1.1c0.2,0.4,0.3,0.7,0.5,1.1c0.3,0.7,0.7,1.5,1,2.2c0.6,1.4,1,2.9,1.5,4.2
		c0.4,1.4,0.7,2.7,1,4c0.3,1.3,0.4,2.5,0.6,3.7c0.2,1.1,0.3,2.2,0.3,3.2c0.1,1,0.1,1.9,0.2,2.7c0,1.7-0.1,3-0.1,3.8
		c0,0.9,0,1.4,0,1.4s-0.2-1.9-0.5-5.2c-0.1-0.8-0.3-1.7-0.4-2.7c-0.2-1-0.3-2-0.6-3.1c-0.3-1.1-0.5-2.3-0.9-3.5
		c-0.4-1.2-0.8-2.5-1.2-3.8c-0.6-1.3-1.1-2.6-1.7-4c-0.3-0.7-0.7-1.3-1.1-2c-0.2-0.3-0.4-0.7-0.5-1c-0.2-0.3-0.4-0.7-0.6-1
		c-0.4-0.7-0.9-1.3-1.3-2c-0.5-0.6-1-1.3-1.5-1.9c-0.3-0.3-0.5-0.6-0.8-1l-0.9-0.9c-0.6-0.6-1.1-1.3-1.8-1.8
		c-2.5-2.3-5.5-4.2-8.7-5.6c-3.2-1.4-6.8-2.2-10.3-2.2c-3.6-0.1-7.1,0.6-10.4,1.9c-3.2,1.4-6.2,3.3-8.7,5.6
		c-0.6,0.6-1.2,1.2-1.8,1.8c-0.6,0.6-1,1.3-1.6,1.9c-0.3,0.3-0.5,0.6-0.8,1c-0.2,0.3-0.4,0.7-0.7,1c-0.4,0.7-0.9,1.3-1.3,2
		c-0.4,0.7-0.7,1.4-1.1,2.1c-0.3,0.7-0.7,1.3-1,2c-0.3,0.7-0.6,1.4-0.8,2c-0.3,0.7-0.6,1.3-0.7,2c-0.4,1.3-0.8,2.6-1.2,3.8
		c-0.3,1.2-0.6,2.4-0.8,3.5c-0.3,1.1-0.4,2.2-0.5,3.1c-0.1,1-0.3,1.9-0.4,2.7C50.6,191.3,50.4,193.2,50.4,193.2z"/>
</g>
<g>
	<path class="st6" d="M192.6,193.2c0,0,0-1.9-0.1-5.2c0-0.8,0.1-1.7,0.1-2.7c0.1-1,0.1-2.1,0.3-3.2c0.2-1.1,0.3-2.4,0.5-3.7
		c0.2-1.3,0.6-2.6,0.9-4c0.1-0.7,0.4-1.4,0.6-2.1c0.2-0.7,0.5-1.4,0.7-2.2c0.2-0.8,0.6-1.4,0.9-2.2c0.3-0.7,0.7-1.5,1-2.2
		c0.4-0.7,0.8-1.4,1.3-2.2c0.2-0.4,0.4-0.7,0.7-1.1c0.3-0.4,0.5-0.7,0.8-1.1c0.5-0.7,1-1.5,1.6-2.1c0.6-0.7,1.2-1.3,1.9-2
		c2.6-2.6,5.8-4.8,9.4-6.4c3.6-1.5,7.6-2.4,11.5-2.3c4,0.1,7.9,1,11.4,2.6l1.3,0.6c0.4,0.2,0.8,0.5,1.3,0.7c0.8,0.5,1.7,0.9,2.4,1.5
		c0.8,0.6,1.5,1.1,2.3,1.7c0.7,0.6,1.4,1.2,2.1,1.9c0.7,0.6,1.2,1.3,1.9,2l0.9,1c0.3,0.3,0.5,0.7,0.8,1.1c0.5,0.7,1,1.4,1.5,2.1
		c0.4,0.7,0.9,1.5,1.3,2.2c0.2,0.4,0.4,0.7,0.6,1.1c0.2,0.4,0.3,0.7,0.5,1.1c0.3,0.7,0.7,1.5,1,2.2c0.6,1.4,1,2.9,1.5,4.2
		c0.4,1.4,0.7,2.7,1,4c0.3,1.3,0.4,2.5,0.6,3.7c0.2,1.1,0.3,2.2,0.3,3.2c0.1,1,0.1,1.9,0.2,2.7c0,1.7-0.1,3-0.1,3.8
		c0,0.9,0,1.4,0,1.4s-0.2-1.9-0.5-5.2c-0.1-0.8-0.3-1.7-0.4-2.7c-0.2-1-0.3-2-0.6-3.1c-0.3-1.1-0.5-2.3-0.9-3.5
		c-0.4-1.2-0.8-2.5-1.2-3.8c-0.6-1.3-1.1-2.6-1.7-4c-0.3-0.7-0.7-1.3-1.1-2c-0.2-0.3-0.4-0.7-0.5-1c-0.2-0.3-0.4-0.7-0.6-1
		c-0.4-0.7-0.9-1.3-1.3-2c-0.5-0.6-1-1.3-1.5-1.9c-0.3-0.3-0.5-0.7-0.8-1l-0.9-0.9c-0.6-0.6-1.1-1.3-1.8-1.8
		c-2.5-2.3-5.5-4.2-8.7-5.6c-3.2-1.4-6.8-2.2-10.3-2.2c-3.6-0.1-7.1,0.6-10.4,1.9c-3.2,1.4-6.2,3.3-8.7,5.6
		c-0.6,0.6-1.2,1.2-1.8,1.8c-0.6,0.6-1,1.3-1.6,1.9c-0.3,0.3-0.5,0.6-0.8,1c-0.2,0.3-0.4,0.7-0.7,1c-0.4,0.7-0.9,1.3-1.3,2
		c-0.4,0.7-0.7,1.4-1.1,2.1c-0.3,0.7-0.7,1.3-1,2c-0.3,0.7-0.6,1.4-0.8,2c-0.3,0.7-0.6,1.3-0.7,2c-0.4,1.3-0.8,2.6-1.2,3.8
		c-0.3,1.2-0.6,2.4-0.8,3.5c-0.3,1.1-0.4,2.2-0.5,3.1c-0.1,1-0.3,1.9-0.4,2.7C192.8,191.3,192.6,193.2,192.6,193.2z"/>
</g>
<path class="st5" d="M188.1,254.1c0,16.6-15.7,30-35,30c-19.3,0-35-13.4-35-30"/>
<rect x="118" y="244" class="st5" width="70" height="11"/>
<g>
	<path class="st6" d="M144.5,228.7c0,0,1.1-0.3,2.7-0.6c0.8-0.1,1.7-0.2,2.7-0.3c1-0.1,2.1-0.1,3.1-0.1c1.1,0,2.1,0,3.1,0.1
		c1,0.1,1.9,0.2,2.7,0.3c1.6,0.2,2.7,0.6,2.7,0.6s-1.1,0.3-2.7,0.6c-0.8,0.1-1.7,0.2-2.7,0.3c-1,0.1-2.1,0.1-3.1,0.1
		c-1.1,0-2.1,0-3.1-0.1c-1-0.1-1.9-0.2-2.7-0.3C145.6,229.1,144.5,228.7,144.5,228.7z"/>
</g>
<radialGradient id="SVGID_1_" cx="153.5" cy="218.0518" r="36.6256" gradientTransform="matrix(1 0 0 0.25 0 154.1222)" gradientUnits="userSpaceOnUse">
	<stop  offset="0" style="stop-color:#F8B5BA"/>
	<stop  offset="1" style="stop-color:#F4CDB4"/>
</radialGradient>
<ellipse class="st3" cx="153.5" cy="208.6" rx="50.7" ry="15.4"/>
</svg>
