<?xml version="1.0" encoding="utf-8"?>
<!DOCTYPE svg PUBLIC "-//W3C//DTD SVG 1.1//EN" "http://www.w3.org/Graphics/SVG/1.1/DTD/svg11.dtd">
<svg version="1.1" xmlns="http://www.w3.org/2000/svg" xmlns:xlink="http://www.w3.org/1999/xlink" viewBox="0 0 14 14">
<path fill="#cf000f" d="M7 13.001q-0.203 0-0.344-0.141l-4.876-4.704q-0.078-0.063-0.215-0.203t-0.434-0.512-0.531-0.762-0.418-0.945-0.184-1.078q0-1.719 0.992-2.688t2.743-0.969q0.484 0 0.988 0.168t0.938 0.453 0.746 0.535 0.594 0.531q0.281-0.281 0.594-0.531t0.746-0.535 0.938-0.453 0.988-0.168q1.75 0 2.743 0.969t0.992 2.688q0 1.727-1.789 3.516l-4.868 4.688q-0.141 0.141-0.344 0.141z"></path>
</svg>
