<svg id="Layer_1" xmlns="http://www.w3.org/2000/svg" viewBox="0 0 489.3 116.5"><style><![CDATA[
	.st0{fill:#C33265;}
]]></style><path class="st0" d="M117.6 89.8c-9.8 16.6-16.6 22-27.6 22-24.9 0-41.8-39.6-61.5-49.9l-.3.2c1.2 7.4 2.1 22.2 2.1 27.9 0 17.4-5 26.5-12.3 26.5-1.4 0-2.2-.3-2.2-1.2 0-1 .7-2.4 1.6-3C21.9 110 24.3 97 24.3 84c0-6.2-1.3-20.1-2.2-25.1-.8-.6-2.5-1.7-4.5-1.9C9.7 56.2 0 54.4 0 48.9c0-1.4 1.6-2 4-2 4.3 0 11.4 2 17 4.6 0 0-3.5-18.6-3.5-32.5 0-14.7 3.6-19 5.1-19 1 0 2.3.4 2.3 3.7 0 3-.6 9.3-.6 16.5 0 14.1 2.4 31.4 2.7 31.4h1.7c22-2.1 48.5-49.3 59-49.3 2 0 2.4.4 2.4.7-.1 1.7-1.6 2.7-3.1 4.1l-1.3 1.3C70 24.5 51.5 53.8 30 56.4c7.6 5.2 14.2 10.3 25.8 24.2l.8.9c7 8.3 21.5 25.9 33 25.9 7.7 0 14.2-3.9 18-10.2-2.6 1.7-3.9 3.1-9 3.1-5.8 0-8.4-4.4-8.4-7.8 0-8 10.8-18.6 19.9-18.6 14.5 0 9.2 30.4 29.2 30.4 4.6 0 7.2-1.9 7.9-1.9 1.3 0 2.5 2 2.5 2.7 0 1.7-8.3 3.5-11.6 3.5-12.8 0-18.7-14.5-20.3-18.4l-.2-.4zm-21.1 2.4c0 2.5 1.9 3.8 3.4 3.8 4.9 0 14.5-9.3 14.5-14.3 0-1.4-1.6-3.5-4.2-3.5-7.5 0-13.7 9-13.7 14z"/><path class="st0" d="M169.8 81.3c7.4 0 10.8 19.5 14.3 19.5 5.3 0 11.6-20.8 18.1-20.8 6.1 0 8.5 23.3 12.9 23.3 8.9 0 11.5-20.7 21.6-20.7 7.1 0 4 21.7 15.6 21.7 5.2 0 7.6-1.9 8.3-1.9 1.2 0 2.5 1.8 2.5 2.8s-5.1 3.2-12 3.2c-14 0-13.1-18.8-16.1-18.8-4 0-10 19-18.8 19-10.9 0-10.2-19.6-14.9-19.6-3.5 0-10.7 18.4-16.8 18.4-9 0-10.6-19-15.3-19-1.8 0-5 5.4-11.9 11.9-4.2 3.9-9.1 6.4-10.3 6.4-2.1 0-2.3-1-2.3-2.3 0-.3 0-1 .6-1.2 3.2-1.4 6.6-4 9-6.7 4.2-4.8 10.6-15.2 15.5-15.2z"/><path class="st0" d="M310 102.4c1.2 0 2.5 1.8 2.5 2.8s-5.1 3.2-12 3.2c-13.4 0-17.8-17.4-20.7-17.4-1.5 0-5.3 5.1-9.2 9.2-3.7 3.8-9 6.5-10.2 6.5-2.1 0-2.3-1-2.3-2.3 0-.3 0-1 .6-1.2 3.2-1.4 6.6-4 9-6.7 4.1-4.4 9-13.5 12.6-13.5 6.5 0 9.5 21.3 21.4 21.3 5.2 0 7.6-1.9 8.3-1.9zm-25.2-47.1c2 0 5.7 1.5 5.7 3.9s-.5 3.3-2.1 3.3c-3.2 0-5.6-2.4-5.6-5.6 0-1.6.8-1.6 2-1.6z"/><path class="st0" d="M309.8 106.7c-2.1 0-2.3-1-2.3-2.3 0-.3 0-1 .6-1.2 3.2-1.4 6.6-4.1 9.1-6.7 4.9-5.2 9.9-12.3 11.9-16.2-2.2-5.8-5.6-23-5.6-36.9S326.4 16 336.1 16C345 16 348 26.1 348 34.9c0 16-9 39.4-13.1 46.3 4.1 8.7 10.5 17.9 22.3 17.9 7.6 0 17.6-9.4 23.2-18.1-2.1-6.4-6.7-27.8-6.7-40.5 0-16 3.6-31.5 18-31.5 9.1 0 12.5 7.9 12.5 17.4 0 14.9-6.7 38-17.5 55.3.1 3.9 9.8 22.4 21 22.4 4.7 0 7.1-1.7 8-1.7 1.2 0 2.4 1.8 2.4 2.8s-5.8 3.2-10.9 3.2c-13.7 0-20.7-13.5-24.6-22-3.5 4.2-14.6 17.6-26.2 17.6-12.2 0-19.7-9.8-24.4-17.4l-.5-.5c-2.3 3.8-6.4 9.2-10.2 13-5 5.1-10.3 7.6-11.5 7.6zm18.9-59.3c0 10 1.8 22.1 3.8 27.6 3.7-7.4 10-27.5 10-39.8 0-5.8-2.2-13.5-6.4-13.5-5.6 0-7.4 13-7.4 25.7zm50.9-5.3c0 13.6 2.7 26.5 4.6 34.1 3.6-5.1 13.8-30.3 13.8-46.7 0-8-.7-14.8-7.2-14.8-9.1 0-11.2 13.5-11.2 27.4zM488.6 93.6c.5 0 .7.4.7 1 0 4.1-6.4 10.3-12.6 10.3-10.6 0-11.4-12.3-17-12.3-5.7 0-13.6 17-27 17-5.8 0-9.2-4.5-9.2-10.4 0-11.5 14.6-23.8 26.4-23.8 5.4 0 7.9 1.9 7.9 5.5 0 3.1-.7 5.4-2.7 7.4 0 .1.2.1.3.1.6 0 2.9-1.7 6.1-1.7 6.8 0 7.2 13.4 14.2 13.4 3.1 0 7-2.4 9-4.1 2-1.7 3.2-2.4 3.9-2.4zm-54.9 9.6c9.2 0 18.8-13.2 18.8-20.4 0-2.1-1.3-2.3-3-2.3-7.4 0-20.3 7.5-20.3 18.7 0 2.6 1.4 4 4.5 4z"/></svg>