<svg id="Layer_1" xmlns="http://www.w3.org/2000/svg" viewBox="0 0 310 490"><style><![CDATA[
	.st0{fill:#472A18;}
	.st1{fill:#F4CDB4;}
	.st2{fill:#F9C1AD;}
	.st3{fill:url(#SVGID_1_);}
	.st4{fill:#C43365;}
	.st5{fill:#FFFFFF;}
	.st6{fill:#010101;}
	.st7{fill:#D25380;}
]]></style><path class="st0" d="M310 81c0 13.8-11.2 25-25 25H25C11.2 106 0 94.8 0 81V25C0 11.2 11.2 0 25 0h260c13.8 0 25 11.2 25 25v56zM310 372c0 13.8-11.2 25-25 25H25c-13.8 0-25-11.2-25-25V131c0-13.8 11.2-25 25-25h260c13.8 0 25 11.2 25 25v241z"/><path class="st7" d="M293 465c0 13.8-11.2 25-25 25H42c-13.8 0-25-11.2-25-25V311c0-13.8 11.2-25 25-25h226c13.8 0 25 11.2 25 25v154z"/><circle class="st2" cx="153.1" cy="302.8" r="43.3"/><circle class="st1" cx="153.9" cy="155" r="154.5"/><path class="st0" d="M1.8 37.1c0-5.1-1.7 75 0 108.4l35.3-.3c67.6 0 122.4-54.8 122.4-122.4"/><path class="st0" d="M50 0h214v35H50zM0 45h16v249H0zM292 37h18v249h-18z"/><path class="st0" d="M307.8 37.1c0-5.1 1.7 75 0 108.4l-35.3-.3c-67.6 0-122.4-54.8-122.4-122.4"/><path class="st4" d="M249 420c0 5.5-4.5 10-10 10h-31c-5.5 0-10-4.5-10-10v-31c0-5.5 4.5-10 10-10h31c5.5 0 10 4.5 10 10v31z"/><path class="st4" d="M198 378h51v26h-51z"/><path class="st6" d="M50.4 193.2s0-1.9-.1-5.2c0-.8.1-1.7.1-2.7.1-1 .1-2.1.3-3.2.2-1.1.3-2.4.5-3.7.2-1.3.6-2.6.9-4 .1-.7.4-1.4.6-2.1.2-.7.5-1.4.7-2.2.2-.8.6-1.4.9-2.2.3-.7.7-1.5 1-2.2.4-.7.8-1.4 1.3-2.2.2-.4.4-.7.7-1.1.3-.4.5-.7.8-1.1.5-.7 1-1.5 1.6-2.1.6-.7 1.2-1.3 1.9-2 2.6-2.6 5.8-4.8 9.4-6.4 3.6-1.5 7.6-2.4 11.5-2.3 4 .1 7.9 1 11.4 2.6l1.3.6c.4.2.8.5 1.3.7.8.5 1.7.9 2.4 1.5.8.6 1.5 1.1 2.3 1.7.7.6 1.4 1.2 2.1 1.9.7.6 1.2 1.3 1.9 2l.9 1c.3.3.5.7.8 1.1l1.5 2.1c.4.7.9 1.5 1.3 2.2.2.4.4.7.6 1.1.2.4.3.7.5 1.1.3.7.7 1.5 1 2.2.6 1.4 1 2.9 1.5 4.2.4 1.4.7 2.7 1 4 .3 1.3.4 2.5.6 3.7.2 1.1.3 2.2.3 3.2.1 1 .1 1.9.2 2.7 0 1.7-.1 3-.1 3.8v1.4s-.2-1.9-.5-5.2c-.1-.8-.3-1.7-.4-2.7-.2-1-.3-2-.6-3.1s-.5-2.3-.9-3.5c-.4-1.2-.8-2.5-1.2-3.8-.6-1.3-1.1-2.6-1.7-4-.3-.7-.7-1.3-1.1-2-.2-.3-.4-.7-.5-1-.2-.3-.4-.7-.6-1-.4-.7-.9-1.3-1.3-2-.5-.6-1-1.3-1.5-1.9-.3-.3-.5-.6-.8-1l-.9-.9c-.6-.6-1.1-1.3-1.8-1.8-2.5-2.3-5.5-4.2-8.7-5.6-3.2-1.4-6.8-2.2-10.3-2.2-3.6-.1-7.1.6-10.4 1.9-3.2 1.4-6.2 3.3-8.7 5.6l-1.8 1.8c-.6.6-1 1.3-1.6 1.9-.3.3-.5.6-.8 1-.2.3-.4.7-.7 1-.4.7-.9 1.3-1.3 2s-.7 1.4-1.1 2.1c-.3.7-.7 1.3-1 2-.3.7-.6 1.4-.8 2-.3.7-.6 1.3-.7 2-.4 1.3-.8 2.6-1.2 3.8-.3 1.2-.6 2.4-.8 3.5-.3 1.1-.4 2.2-.5 3.1-.1 1-.3 1.9-.4 2.7-.1 3.3-.3 5.2-.3 5.2zM192.6 193.2s0-1.9-.1-5.2c0-.8.1-1.7.1-2.7.1-1 .1-2.1.3-3.2.2-1.1.3-2.4.5-3.7.2-1.3.6-2.6.9-4 .1-.7.4-1.4.6-2.1.2-.7.5-1.4.7-2.2.2-.8.6-1.4.9-2.2.3-.7.7-1.5 1-2.2.4-.7.8-1.4 1.3-2.2.2-.4.4-.7.7-1.1.3-.4.5-.7.8-1.1.5-.7 1-1.5 1.6-2.1.6-.7 1.2-1.3 1.9-2 2.6-2.6 5.8-4.8 9.4-6.4 3.6-1.5 7.6-2.4 11.5-2.3 4 .1 7.9 1 11.4 2.6l1.3.6c.4.2.8.5 1.3.7.8.5 1.7.9 2.4 1.5.8.6 1.5 1.1 2.3 1.7.7.6 1.4 1.2 2.1 1.9.7.6 1.2 1.3 1.9 2l.9 1c.3.3.5.7.8 1.1l1.5 2.1c.4.7.9 1.5 1.3 2.2.2.4.4.7.6 1.1.2.4.3.7.5 1.1.3.7.7 1.5 1 2.2.6 1.4 1 2.9 1.5 4.2.4 1.4.7 2.7 1 4 .3 1.3.4 2.5.6 3.7.2 1.1.3 2.2.3 3.2.1 1 .1 1.9.2 2.7 0 1.7-.1 3-.1 3.8v1.4s-.2-1.9-.5-5.2c-.1-.8-.3-1.7-.4-2.7-.2-1-.3-2-.6-3.1s-.5-2.3-.9-3.5c-.4-1.2-.8-2.5-1.2-3.8-.6-1.3-1.1-2.6-1.7-4-.3-.7-.7-1.3-1.1-2-.2-.3-.4-.7-.5-1-.2-.3-.4-.7-.6-1-.4-.7-.9-1.3-1.3-2-.5-.6-1-1.3-1.5-1.9-.3-.3-.5-.7-.8-1l-.9-.9c-.6-.6-1.1-1.3-1.8-1.8-2.5-2.3-5.5-4.2-8.7-5.6-3.2-1.4-6.8-2.2-10.3-2.2-3.6-.1-7.1.6-10.4 1.9-3.2 1.4-6.2 3.3-8.7 5.6l-1.8 1.8c-.6.6-1 1.3-1.6 1.9-.3.3-.5.6-.8 1-.2.3-.4.7-.7 1-.4.7-.9 1.3-1.3 2s-.7 1.4-1.1 2.1c-.3.7-.7 1.3-1 2-.3.7-.6 1.4-.8 2-.3.7-.6 1.3-.7 2-.4 1.3-.8 2.6-1.2 3.8-.3 1.2-.6 2.4-.8 3.5-.3 1.1-.4 2.2-.5 3.1-.1 1-.3 1.9-.4 2.7-.1 3.3-.3 5.2-.3 5.2z"/><path class="st5" d="M188.1 254.1c0 16.6-15.7 30-35 30s-35-13.4-35-30"/><path class="st5" d="M118 244h70v11h-70z"/><path class="st6" d="M144.5 228.7s1.1-.3 2.7-.6c.8-.1 1.7-.2 2.7-.3 1-.1 2.1-.1 3.1-.1 1.1 0 2.1 0 3.1.1s1.9.2 2.7.3c1.6.2 2.7.6 2.7.6s-1.1.3-2.7.6c-.8.1-1.7.2-2.7.3-1 .1-2.1.1-3.1.1-1.1 0-2.1 0-3.1-.1s-1.9-.2-2.7-.3c-1.6-.2-2.7-.6-2.7-.6z"/><radialGradient id="SVGID_1_" cx="153.5" cy="218.052" r="36.626" gradientTransform="matrix(1 0 0 .25 0 154.12)" gradientUnits="userSpaceOnUse"><stop offset="0" stop-color="#F8B5BA"/><stop offset="1" stop-color="#F4CDB4"/></radialGradient><ellipse class="st3" cx="153.5" cy="208.6" rx="50.7" ry="15.4"/></svg>