<?xml version="1.0" encoding="utf-8"?>
<!-- Generator: Adobe Illustrator 16.0.0, SVG Export Plug-In . SVG Version: 6.00 Build 0)  -->
<!DOCTYPE svg PUBLIC "-//W3C//DTD SVG 1.1//EN" "http://www.w3.org/Graphics/SVG/1.1/DTD/svg11.dtd">
<svg version="1.1" id="Layer_1" xmlns="http://www.w3.org/2000/svg" xmlns:xlink="http://www.w3.org/1999/xlink" x="0px" y="0px"
	 width="114px" height="108px" viewBox="0 0 114 108" style="enable-background:new 0 0 114 108;" xml:space="preserve">
<ellipse style="fill:#FFFFFF;" cx="23.705" cy="83.857" rx="9.755" ry="8.254"/>
<ellipse style="fill:#FFFFFF;" cx="6.636" cy="99.916" rx="6.036" ry="5.106"/>
<ellipse style="fill:#FFFFFF;" cx="68.609" cy="40.979" rx="44.566" ry="37.709"/>
<g>
	<g>
		<path style="fill:#171717;" d="M83.962,45.698c0,0,0.101-0.005,0.29-0.015c0.214-0.017,0.539-0.049,0.951-0.108
			c0.817-0.125,2.016-0.344,3.271-0.901c0.615-0.284,1.243-0.664,1.709-1.184c0.46-0.521,0.722-1.184,0.661-1.97
			c-0.041-0.782-0.376-1.636-0.847-2.442c-0.475-0.809-1.065-1.59-1.705-2.338c-0.662-0.759-1.308-1.646-1.802-2.528
			c-0.51-0.893-0.896-1.844-1.122-2.805c-0.218-0.961-0.265-1.952-0.014-2.846c0.232-0.898,0.815-1.638,1.484-2.059
			c0.666-0.442,1.383-0.6,1.997-0.684c0.62-0.084,1.163-0.047,1.605-0.027c0.441,0.043,0.786,0.085,1.02,0.131
			c0.233,0.04,0.357,0.061,0.357,0.061s-0.126-0.013-0.361-0.036c-0.234-0.03-0.581-0.048-1.02-0.061
			c-0.438,0.009-0.976,0.01-1.57,0.133c-0.588,0.121-1.257,0.322-1.831,0.765c-0.579,0.426-1.035,1.097-1.185,1.898
			c-0.168,0.797-0.068,1.684,0.19,2.548c0.269,0.864,0.683,1.719,1.214,2.517c0.538,0.814,1.135,1.531,1.847,2.25
			c0.715,0.747,1.394,1.542,1.975,2.417c0.573,0.875,1.058,1.858,1.19,2.969c0.086,0.549,0.02,1.127-0.115,1.669
			c-0.164,0.539-0.427,1.029-0.746,1.441c-0.652,0.814-1.444,1.331-2.174,1.722c-1.48,0.756-2.784,1.057-3.695,1.252
			c-0.458,0.093-0.821,0.149-1.077,0.184c-0.146,0.016-0.258,0.029-0.333,0.037c-0.065,0.005-0.1,0.008-0.1,0.008L83.962,45.698z"/>
	</g>
	<path style="fill:#808080;" d="M84.018,45.637c-2.137-5.129-7.641-8.062-14.135-8.545l0,0c0,0-0.479-0.068-1.309-0.085
		c-0.248-0.006-0.497-0.019-0.746-0.019c-1.36,0-2.679,0.108-3.939,0.318c-3.357,0.505-7.567,1.76-11.129,4.751
		c-2.391,1.002-4.204,2.654-5.052,4.454c-0.063,0.134-0.121,0.268-0.173,0.402l0,0c-3.796,1.973,1.65,5.662,1.65,5.662
		c0.477,0.336,1.023,0.327,1.621,0.933l0,0c0.006,0,0.011-0.105,0.016-0.104c0.186,0.064,0.378,0.069,0.575,0.121
		c8.252,2.457,19.522,1.955,19.522,1.955C79.861,55.48,86.292,51.095,84.018,45.637z"/>
	<circle style="fill:#010101;" cx="54.747" cy="47.758" r="0.845"/>
	<ellipse style="fill:#010101;" cx="48.62" cy="45.559" rx="0.674" ry="0.74"/>
	<ellipse style="fill:#BC2025;" cx="47.246" cy="48.358" rx="1.061" ry="1.03"/>
	<path style="fill:#E39B9B;" d="M56.281,43.291c-0.407,1.84,1.061,3.646,2.979,3.969C67.756,49.167,58.49,34.683,56.281,43.291z"/>
	<path style="fill:#E39B9B;" d="M50.57,43.957c1.642,0.146,3.044-1.333,3.108-3.033C53.941,36.242,42.018,43.089,50.57,43.957z"/>
	<circle style="fill:#FFFFFF;" cx="48.469" cy="45.142" r="0.161"/>
	<circle style="fill:#FFFFFF;" cx="54.586" cy="47.396" r="0.161"/>
	<g>
		<path style="fill:#191919;" d="M51.434,52.709c-0.711,0.664-1.605,0.151-1.605,0.151"/>
		<path style="fill:#171717;" d="M51.448,52.729c0.004,0.006-0.006,0.177-0.109,0.31c-0.025,0.03-0.058,0.064-0.124,0.077
			c-0.06,0.015-0.137-0.002-0.202-0.009c-0.136-0.025-0.231-0.023-0.346,0.072c-0.23,0.153-0.518,0.13-0.659-0.009
			c-0.155-0.114-0.191-0.289-0.191-0.289l0.024-0.043c0,0,0.151-0.063,0.304-0.083c0.079-0.011,0.16-0.022,0.239,0.018
			c0.04,0.021,0.082,0.027,0.125,0.048c0.044,0.018,0.091,0.058,0.14,0.084c0.096,0.057,0.224,0.068,0.27-0.051
			c0.049-0.117,0.082-0.122,0.172-0.161c0.159-0.056,0.323-0.011,0.327-0.005L51.448,52.729z"/>
	</g>
</g>
</svg>
